# xmcd CD database file
#
# Track frame offsets:
#	150
#	21208
#	37931
#	54217
#
# Disc length: 1005 seconds
#
# Revision: 1
# Processed by: cddbd v1.5PL3 Copyright (c) Steve Scherf et al.
# Submitted via: CDex 1.50
#
DISCID=2303eb04
DTITLE=Imperial Vipers - Imperial Vipers E.P.
DYEAR=2004
DGENRE=Alt. Rock
TTITLE0=The Dirt
TTITLE1=Kick A Hole
TTITLE2=In Chains
TTITLE3=Hard To Smile
EXTD=YEAR: 2004
EXTT0=
EXTT1=
EXTT2=
EXTT3=
PLAYORDER=
